<svg width="64" height="64" viewBox="0 0 64 64" fill="none" xmlns="http://www.w3.org/2000/svg">
<g clip-path="url(#clip0_4_31)">
<path fill-rule="evenodd" clip-rule="evenodd" d="M54.2445 31.0408L39.5 46.1392C35.5671 50.1665 29.1141 50.243 25.0868 46.3101C25.0292 46.2539 24.9722 46.1969 24.9159 46.1392L24.7555 45.9749C20.7897 41.914 20.7897 35.4304 24.7555 31.3695L39.5 16.271C43.4329 12.2438 49.8859 12.1672 53.9132 16.1001C53.9708 16.1564 54.0278 16.2134 54.0841 16.271L54.2445 16.4354C58.2103 20.4963 58.2103 26.9799 54.2445 31.0408Z" fill="#5383FF"/>
<path fill-rule="evenodd" clip-rule="evenodd" d="M24.9039 46.1392L10.3198 31.2051C6.26489 27.0529 6.26489 20.4233 10.3198 16.271C14.2527 12.2438 20.7057 12.1672 24.733 16.1001C24.7907 16.1564 24.8476 16.2134 24.9039 16.271L39.488 31.2051C43.543 35.3574 43.5429 41.987 39.488 46.1392C35.5551 50.1665 29.1021 50.243 25.0748 46.3101C25.0172 46.2538 24.9602 46.1969 24.9039 46.1392Z" fill="#5383FF"/>
<path fill-rule="evenodd" clip-rule="evenodd" d="M24.7352 45.9566L17.6291 38.68L32.2132 23.7459L46.7972 38.68L39.6912 45.9566C35.658 50.0866 29.0404 50.1651 24.9104 46.1319C24.8513 46.0742 24.7929 46.0157 24.7352 45.9566Z" fill="#366EFF"/>
</g>
<defs>
<clipPath id="clip0_4_31">
<rect width="52" height="38" fill="white" transform="translate(58 51) rotate(-180)"/>
</clipPath>
</defs>
</svg>
