<svg width="16" height="16" viewBox="0 0 16 16" fill="none" xmlns="http://www.w3.org/2000/svg">
<path d="M15.36 0H0.64C0.286 0 0 0.286 0 0.64V15.36C0 15.714 0.286 16 0.64 16H15.36C15.714 16 16 15.714 16 15.36V0.64C16 0.286 15.714 0 15.36 0ZM9.73 4.778H12.498V5.452H9.73V4.778ZM8 10.336C7.87053 10.5818 7.68566 10.794 7.46 10.956C7.224 11.12 6.962 11.24 6.684 11.31C6.39315 11.3879 6.09311 11.4263 5.792 11.424H2.48V4.602H5.7C6.026 4.602 6.322 4.632 6.592 4.688C6.86 4.744 7.088 4.84 7.28 4.97C7.47 5.1 7.62 5.274 7.726 5.49C7.83 5.704 7.884 5.972 7.884 6.29C7.884 6.634 7.806 6.918 7.65 7.148C7.492 7.378 7.264 7.564 6.954 7.71C7.376 7.83 7.686 8.044 7.89 8.344C8.098 8.648 8.2 9.012 8.2 9.44C8.2 9.788 8.134 10.086 8 10.336ZM13.576 9.28H10.008C10.008 9.668 10.142 10.04 10.344 10.24C10.548 10.438 10.84 10.538 11.222 10.538C11.498 10.538 11.732 10.468 11.932 10.33C12.13 10.192 12.25 10.046 12.294 9.894H13.49C13.298 10.488 13.006 10.912 12.61 11.168C12.218 11.424 11.738 11.552 11.18 11.552C10.79 11.552 10.44 11.488 10.126 11.366C9.824 11.248 9.552 11.068 9.328 10.836C9.10714 10.5977 8.93642 10.3175 8.826 10.012C8.704 9.674 8.644 9.318 8.648 8.96C8.648 8.59 8.71 8.246 8.83 7.926C9.06 7.304 9.538 6.806 10.148 6.548C10.474 6.412 10.824 6.344 11.178 6.348C11.598 6.348 11.962 6.428 12.278 6.592C12.5822 6.7486 12.8463 6.97305 13.05 7.248C13.252 7.522 13.394 7.834 13.484 8.186C13.57 8.532 13.6 8.896 13.576 9.28V9.28ZM11.136 7.368C10.92 7.368 10.738 7.406 10.598 7.48C10.458 7.554 10.342 7.646 10.254 7.752C10.1702 7.85435 10.1083 7.97278 10.072 8.1C10.04 8.206 10.018 8.314 10.01 8.424H12.22C12.188 8.078 12.068 7.822 11.908 7.642C11.74 7.464 11.47 7.368 11.136 7.368V7.368ZM6.166 7.166C6.34 7.04 6.424 6.832 6.424 6.546C6.43 6.41 6.402 6.276 6.342 6.154C6.288 6.056 6.208 5.974 6.11 5.916C6.00839 5.85438 5.89553 5.81359 5.778 5.796C5.65 5.772 5.52 5.76 5.392 5.762H3.986V7.356H5.508C5.77 7.358 5.992 7.294 6.166 7.166V7.166ZM6.402 8.606C6.206 8.456 5.944 8.382 5.618 8.382H3.982V10.262H5.586C5.736 10.262 5.874 10.248 6.008 10.22C6.142 10.192 6.262 10.144 6.364 10.076C6.466 10.01 6.548 9.92 6.61 9.804C6.67 9.688 6.7 9.54 6.7 9.362C6.7 9.008 6.6 8.758 6.402 8.606V8.606Z" fill="white"/>
</svg>
