<svg width="40" height="40" viewBox="0 0 40 40" fill="none" xmlns="http://www.w3.org/2000/svg">
<g clip-path="url(#clip0_759_391)">
<rect width="40" height="40" fill="#E1E7FE"/>
<path d="M22.5338 23.3799C22.8172 23.9544 23.257 24.4372 23.8025 24.773C24.348 25.1088 24.9772 25.2838 25.6177 25.2781C26.913 25.2781 27.7406 24.6304 27.7406 23.7361C27.7406 22.6646 26.8901 22.2846 25.4651 21.6607L24.6832 21.3255C22.4279 20.3645 20.9289 19.1606 20.9289 16.6157C20.9289 14.2708 22.7156 12.4868 25.5072 12.4868C26.4132 12.4211 27.3185 12.6239 28.1099 13.0699C28.9013 13.5159 29.5436 14.1852 29.9566 14.9943L27.5223 16.5572C27.3629 16.1563 27.0852 15.8134 26.7263 15.574C26.3673 15.3347 25.944 15.2102 25.5126 15.2172C25.3246 15.1983 25.1347 15.2187 24.955 15.2773C24.7753 15.3359 24.6098 15.4312 24.4691 15.5573C24.3283 15.6834 24.2153 15.8374 24.1374 16.0096C24.0594 16.1817 24.0182 16.3683 24.0164 16.5572C24.0164 17.4954 24.5974 17.8744 25.9347 18.4554L26.7166 18.7897C29.3729 19.9288 30.8719 21.0898 30.8719 23.7005C30.8719 26.5149 28.6614 28.0568 25.6917 28.0568C24.5349 28.1304 23.3816 27.8677 22.3709 27.3004C21.3601 26.7331 20.5351 25.8854 19.9953 24.8597L22.5338 23.3799ZM11.4919 23.6539C11.9834 24.5254 12.4301 25.2616 13.5015 25.2616C14.5283 25.2616 15.1768 24.8597 15.1768 23.2977V12.6695H18.3027V23.3415C18.3027 26.5779 16.4045 28.0513 13.6349 28.0513C12.6566 28.1043 11.6851 27.8598 10.8484 27.3502C10.0116 26.8405 9.34878 26.0894 8.94702 25.1958L11.4919 23.6539Z" fill="#366EFF"/>
</g>
<defs>
<clipPath id="clip0_759_391">
<rect width="40" height="40" rx="20" fill="white"/>
</clipPath>
</defs>
</svg>
