<svg width="25" height="25" viewBox="0 0 25 25" fill="none" xmlns="http://www.w3.org/2000/svg">
<path d="M20.4688 3.125H4.53125C3.75 3.125 3.125 3.75 3.125 4.45312V20.4688C3.125 21.1719 3.75 21.7969 4.53125 21.7969H20.4688C21.25 21.7969 21.875 21.1719 21.875 20.4688V4.45312C21.875 3.75 21.25 3.125 20.4688 3.125ZM8.67188 19.0625H5.9375V10.1562H8.67188V19.0625ZM7.34375 8.90625C6.48437 8.90625 5.70313 8.20312 5.70313 7.26562C5.70313 6.32812 6.40625 5.625 7.34375 5.625C8.20312 5.625 8.98438 6.32812 8.98438 7.26562C8.98438 8.20312 8.20312 8.90625 7.34375 8.90625ZM19.1406 18.9844H16.4062V14.6094C16.4062 13.5938 16.4062 12.1875 14.9219 12.1875C13.4375 12.1875 13.2812 13.3594 13.2812 14.4531V18.9063H10.5469V10.1562H13.125V11.3281H13.2031C13.5938 10.625 14.5312 9.84375 15.8594 9.84375C18.6719 9.84375 19.2188 11.7188 19.2188 14.1406V18.9844H19.1406Z" fill="#366EFF"/>
</svg>
