<svg width="20" height="19" viewBox="0 0 20 19" fill="none" xmlns="http://www.w3.org/2000/svg">
<path d="M17.5 3.48588H14.1797V2.64314C14.1797 1.95363 13.9388 1.37264 13.457 0.900198C12.9753 0.427751 12.3828 0.191528 11.6797 0.191528H8.32031C7.61719 0.191528 7.02474 0.427751 6.54297 0.900198C6.0612 1.37264 5.82031 1.95363 5.82031 2.64314V3.48588H2.5C1.79688 3.48588 1.20443 3.71572 0.722656 4.1754C0.240885 4.63508 0 5.22244 0 5.9375V9.19355C0 9.72984 0.273438 9.99798 0.820312 9.99798V16.5484C0.820312 16.9825 0.989583 17.3656 1.32812 17.6976C1.66667 18.0296 2.05729 18.1956 2.5 18.1956H17.5C17.9427 18.1956 18.3333 18.0296 18.6719 17.6976C19.0104 17.3656 19.1797 16.9825 19.1797 16.5484V9.99798C19.7266 9.99798 20 9.72984 20 9.19355V5.9375C20 5.22244 19.7591 4.63508 19.2773 4.1754C18.7956 3.71572 18.2031 3.48588 17.5 3.48588ZM7.5 2.64314C7.5 2.4133 7.57812 2.22177 7.73438 2.06854C7.89062 1.91532 8.08594 1.83871 8.32031 1.83871H11.6797C11.9141 1.83871 12.1094 1.91532 12.2656 2.06854C12.4219 2.22177 12.5 2.4133 12.5 2.64314V3.48588H7.5V2.64314ZM2.5 16.5484V9.99798H7.5V12.4496C7.5 12.9093 7.66276 13.2987 7.98828 13.6179C8.3138 13.9372 8.71094 14.0968 9.17969 14.0968H10.8203C11.2891 14.0968 11.6862 13.9372 12.0117 13.6179C12.3372 13.2987 12.5 12.9093 12.5 12.4496V9.99798H17.5V16.5484H2.5ZM9.17969 12.4496V9.99798H10.8203V12.4496H9.17969ZM18.3203 8.38911H1.67969V5.9375C1.67969 5.37567 1.95312 5.09476 2.5 5.09476H17.5C18.0469 5.09476 18.3203 5.37567 18.3203 5.9375V8.38911Z" fill="#575757"/>
</svg>
