<svg width="40" height="40" viewBox="0 0 40 40" fill="none" xmlns="http://www.w3.org/2000/svg">
<g clip-path="url(#clip0_759_445)">
<rect width="40" height="40" fill="#E1E7FE"/>
<g clip-path="url(#clip1_759_445)">
<path fill-rule="evenodd" clip-rule="evenodd" d="M20 10.8653C16.8138 10.8653 14.2308 13.4483 14.2308 16.6346L14.2308 16.6353C14.2301 17.5352 14.4403 18.4228 14.8446 19.2269C15.2488 20.0309 15.8358 20.729 16.5586 21.2652C16.985 21.5817 17.0743 22.1839 16.7578 22.6104C16.4414 23.0369 15.8392 23.1261 15.4127 22.8097C14.4486 22.0944 13.6656 21.1632 13.1264 20.0907C12.5872 19.0182 12.3068 17.8342 12.3077 16.6338L13.2693 16.6346H12.3077C12.3077 16.6343 12.3077 16.6341 12.3077 16.6338C12.3081 12.3858 15.7519 8.94226 20 8.94226C24.2484 8.94226 27.6924 12.3862 27.6924 16.6346C27.6924 19.1269 26.5056 21.3429 24.6709 22.7468C24.2492 23.0695 23.6457 22.9892 23.323 22.5674C23.0002 22.1457 23.0805 21.5422 23.5023 21.2195C24.882 20.1638 25.7693 18.5028 25.7693 16.6346C25.7693 13.4483 23.1863 10.8653 20 10.8653Z" fill="#366EFF"/>
<path fill-rule="evenodd" clip-rule="evenodd" d="M20 15.673C20.3047 15.673 20.5913 15.8174 20.7727 16.0622L30.3881 29.0429C30.6042 29.3348 30.6375 29.7235 30.4742 30.0479C30.3108 30.3722 29.9786 30.5768 29.6154 30.5768H10.3846C10.0215 30.5768 9.68928 30.3722 9.5259 30.0479C9.36251 29.7235 9.39582 29.3348 9.61199 29.0429L19.2274 16.0622C19.4087 15.8174 19.6954 15.673 20 15.673ZM12.2935 28.6537H27.7066L20 18.2499L12.2935 28.6537Z" fill="#366EFF"/>
</g>
</g>
<defs>
<clipPath id="clip0_759_445">
<rect width="40" height="40" rx="20" fill="white"/>
</clipPath>
<clipPath id="clip1_759_445">
<rect width="23.0769" height="23.0769" fill="white" transform="translate(8.46155 8.46155)"/>
</clipPath>
</defs>
</svg>
