<svg width="20" height="21" viewBox="0 0 20 21" fill="none" xmlns="http://www.w3.org/2000/svg">
<path d="M10 0.742249C8.68678 0.742249 7.38642 1.00091 6.17317 1.50345C4.95991 2.006 3.85752 2.74259 2.92893 3.67118C1.05357 5.54654 0 8.09008 0 10.7422C0 15.1622 2.87 18.9122 6.84 20.2422C7.34 20.3222 7.5 20.0122 7.5 19.7422V18.0522C4.73 18.6522 4.14 16.7122 4.14 16.7122C3.68 15.5522 3.03 15.2422 3.03 15.2422C2.12 14.6222 3.1 14.6422 3.1 14.6422C4.1 14.7122 4.63 15.6722 4.63 15.6722C5.5 17.1922 6.97 16.7422 7.54 16.5022C7.63 15.8522 7.89 15.4122 8.17 15.1622C5.95 14.9122 3.62 14.0522 3.62 10.2422C3.62 9.13225 4 8.24225 4.65 7.53225C4.55 7.28225 4.2 6.24225 4.75 4.89225C4.75 4.89225 5.59 4.62225 7.5 5.91225C8.29 5.69225 9.15 5.58225 10 5.58225C10.85 5.58225 11.71 5.69225 12.5 5.91225C14.41 4.62225 15.25 4.89225 15.25 4.89225C15.8 6.24225 15.45 7.28225 15.35 7.53225C16 8.24225 16.38 9.13225 16.38 10.2422C16.38 14.0622 14.04 14.9022 11.81 15.1522C12.17 15.4622 12.5 16.0722 12.5 17.0022V19.7422C12.5 20.0122 12.66 20.3322 13.17 20.2422C17.14 18.9022 20 15.1622 20 10.7422C20 9.42903 19.7413 8.12867 19.2388 6.91541C18.7362 5.70216 17.9997 4.59977 17.0711 3.67118C16.1425 2.74259 15.0401 2.006 13.8268 1.50345C12.6136 1.00091 11.3132 0.742249 10 0.742249V0.742249Z" fill="#366EFF"/>
</svg>
