<svg width="40" height="40" viewBox="0 0 40 40" fill="none" xmlns="http://www.w3.org/2000/svg">
<g clip-path="url(#clip0_759_514)">
<rect width="40" height="40" fill="#E1E7FE"/>
<g clip-path="url(#clip1_759_514)">
<g clip-path="url(#clip2_759_514)">
<path d="M27.7778 12C28.3671 12 28.9324 12.2371 29.3491 12.659C29.7659 13.081 30 13.6533 30 14.25V27.75C30 28.3467 29.7659 28.919 29.3491 29.341C28.9324 29.7629 28.3671 30 27.7778 30H12.2222C11.6329 30 11.0676 29.7629 10.6509 29.341C10.2341 28.919 10 28.3467 10 27.75V14.25C10 13.6533 10.2341 13.081 10.6509 12.659C11.0676 12.2371 11.6329 12 12.2222 12H27.7778ZM27.7778 21H12.2222V27.75H27.7778V21ZM27.7778 14.25H12.2222V18.75H27.7778V14.25ZM14.4444 15.375C14.7391 15.375 15.0217 15.4935 15.2301 15.7045C15.4385 15.9155 15.5556 16.2016 15.5556 16.5C15.5556 16.7984 15.4385 17.0845 15.2301 17.2955C15.0217 17.5065 14.7391 17.625 14.4444 17.625C14.1498 17.625 13.8671 17.5065 13.6588 17.2955C13.4504 17.0845 13.3333 16.7984 13.3333 16.5C13.3333 16.2016 13.4504 15.9155 13.6588 15.7045C13.8671 15.4935 14.1498 15.375 14.4444 15.375ZM17.7778 15.375C18.0725 15.375 18.3551 15.4935 18.5635 15.7045C18.7718 15.9155 18.8889 16.2016 18.8889 16.5C18.8889 16.7984 18.7718 17.0845 18.5635 17.2955C18.3551 17.5065 18.0725 17.625 17.7778 17.625C17.4831 17.625 17.2005 17.5065 16.9921 17.2955C16.7837 17.0845 16.6667 16.7984 16.6667 16.5C16.6667 16.2016 16.7837 15.9155 16.9921 15.7045C17.2005 15.4935 17.4831 15.375 17.7778 15.375ZM21.1111 15.375C21.4058 15.375 21.6884 15.4935 21.8968 15.7045C22.1052 15.9155 22.2222 16.2016 22.2222 16.5C22.2222 16.7984 22.1052 17.0845 21.8968 17.2955C21.6884 17.5065 21.4058 17.625 21.1111 17.625C20.8164 17.625 20.5338 17.5065 20.3254 17.2955C20.1171 17.0845 20 16.7984 20 16.5C20 16.2016 20.1171 15.9155 20.3254 15.7045C20.5338 15.4935 20.8164 15.375 21.1111 15.375Z" fill="#366EFF"/>
</g>
</g>
</g>
<defs>
<clipPath id="clip0_759_514">
<rect width="40" height="40" rx="20" fill="white"/>
</clipPath>
<clipPath id="clip1_759_514">
<rect width="29.2308" height="29.2308" fill="white" transform="translate(5.38464 5.38464)"/>
</clipPath>
<clipPath id="clip2_759_514">
<rect width="30" height="30" fill="white" transform="translate(9.38464 9.38464)"/>
</clipPath>
</defs>
</svg>
